<svg aria-hidden="true" style="position: absolute; width: 0; height: 0; overflow: hidden;" version="1.1" xmlns="http://www.w3.org/2000/svg" xmlns:xlink="http://www.w3.org/1999/xlink">
<defs>
<symbol id="icon-instagram" viewBox="0 0 32 32">
<path d="M22.001 0h-12c-5.522 0-10 4.478-10 10v12c0 5.522 4.478 10 10 10h12c5.522 0 10-4.478 10-10v-12c0-5.522-4.478-10-10-10zM29.001 22c0 3.86-3.14 7-7 7h-12c-3.86 0-7-3.14-7-7v-12c0-3.86 3.14-7 7-7h12c3.86 0 7 3.14 7 7v12z"></path>
<path d="M16.001 8c-4.418 0-8 3.582-8 8s3.582 8 8 8c4.418 0 8-3.582 8-8s-3.582-8-8-8zM16.001 21c-2.756 0-5-2.244-5-5 0-2.758 2.244-5 5-5s5 2.242 5 5c0 2.756-2.244 5-5 5z"></path>
<path d="M24.601 8.466c0.589 0 1.066-0.477 1.066-1.066s-0.477-1.066-1.066-1.066c-0.589 0-1.066 0.477-1.066 1.066s0.477 1.066 1.066 1.066z"></path>
</symbol>
<symbol id="icon-menu" viewBox="0 0 48 32">
<path d="M0 0h48v6.4h-48v-6.4z"></path>
<path d="M0 12.8h48v6.4h-48v-6.4z"></path>
<path d="M0 25.6h48v6.4h-48v-6.4z"></path>
</symbol>
<symbol id="icon-vk" viewBox="0 0 58 32">
<path d="M57.663 28.542c-0.156-0.252-1.123-2.279-5.779-6.443-4.873-4.361-4.218-3.653 1.651-11.193 3.575-4.592 5.004-7.397 4.556-8.595-0.425-1.143-3.055-0.841-3.055-0.841l-8.743 0.049c0 0-0.647-0.084-1.131 0.193-0.469 0.273-0.771 0.904-0.771 0.904s-1.385 3.555-3.233 6.576c-3.895 6.377-5.455 6.713-6.091 6.317-1.48-0.922-1.109-3.709-1.109-5.686 0-6.18 0.971-8.757-1.895-9.423-0.953-0.221-1.651-0.368-4.084-0.393-3.12-0.032-5.764 0.011-7.259 0.715-0.996 0.47-1.764 1.518-1.295 1.577 0.578 0.074 1.887 0.34 2.582 1.251 0.898 1.174 0.866 3.817 0.866 3.817s0.516 7.274-1.204 8.178c-1.182 0.62-2.8-0.645-6.273-6.433-1.778-2.962-3.124-6.24-3.124-6.24s-0.258-0.61-0.72-0.936c-0.56-0.396-1.346-0.522-1.346-0.522l-8.313 0.049c0 0-1.247 0.035-1.706 0.557-0.407 0.466-0.033 1.427-0.033 1.427s6.51 14.678 13.877 22.078c6.761 6.783 14.434 6.338 14.434 6.338h3.477c0 0 1.051-0.112 1.585-0.67 0.495-0.512 0.477-1.472 0.477-1.472s-0.069-4.498 2.098-5.16c2.135-0.652 4.877 4.347 7.782 6.271 2.196 1.455 3.866 1.136 3.866 1.136l7.772-0.105c0 0 4.066-0.242 2.138-3.323z"></path>
</symbol>
<symbol id="icon-close" viewBox="0 0 32 32">
<path d="M3.62 0l27.153 27.153-3.62 3.62-27.153-27.153 3.62-3.62z"></path>
<path d="M0.027 27.179l27.153-27.153 3.62 3.62-27.153 27.153-3.62-3.62z"></path>
</symbol>
<symbol id="icon-arrow" viewBox="0 0 77 32">
<path d="M38.4 32l-33.255-28.8h66.511l-33.256 28.8z"></path>
</symbol>
</defs>
</svg>
