<svg width="20" height="20" viewBox="0 0 20 20" fill="none" xmlns="http://www.w3.org/2000/svg">
<path d="M13.7505 0H6.25023C2.79885 0 0 2.79875 0 6.25V13.75C0 17.2013 2.79885 20 6.25023 20H13.7505C17.2019 20 20.0007 17.2013 20.0007 13.75V6.25C20.0007 2.79875 17.2019 0 13.7505 0ZM18.1257 13.75C18.1257 16.1625 16.1631 18.125 13.7505 18.125H6.25023C3.83764 18.125 1.87507 16.1625 1.87507 13.75V6.25C1.87507 3.8375 3.83764 1.875 6.25023 1.875H13.7505C16.1631 1.875 18.1257 3.8375 18.1257 6.25V13.75Z" fill="#222222"/>
<path d="M10.0004 5C7.23902 5 5.00018 7.23875 5.00018 10C5.00018 12.7613 7.23902 15 10.0004 15C12.7617 15 15.0006 12.7613 15.0006 10C15.0006 7.23875 12.7617 5 10.0004 5ZM10.0004 13.125C8.2778 13.125 6.87525 11.7225 6.87525 10C6.87525 8.27625 8.2778 6.875 10.0004 6.875C11.7229 6.875 13.1255 8.27625 13.1255 10C13.1255 11.7225 11.7229 13.125 10.0004 13.125Z" fill="#222222"/>
<path d="M15.3756 5.29148C15.7435 5.29148 16.0418 4.99319 16.0418 4.62523C16.0418 4.25727 15.7435 3.95898 15.3756 3.95898C15.0076 3.95898 14.7093 4.25727 14.7093 4.62523C14.7093 4.99319 15.0076 5.29148 15.3756 5.29148Z" fill="#222222"/>
</svg>
