<svg width="20" height="11" viewBox="0 0 20 11" fill="none" xmlns="http://www.w3.org/2000/svg">
<path d="M19.8217 9.81131C19.768 9.72455 19.4355 9.02805 17.8353 7.5965C16.1602 6.09746 16.3852 6.34087 18.4029 3.74889C19.6317 2.17033 20.123 1.20632 19.9692 0.794205C19.823 0.401371 18.9192 0.505002 18.9192 0.505002L15.9139 0.521872C15.9139 0.521872 15.6914 0.492952 15.5252 0.588148C15.3639 0.682139 15.2601 0.899041 15.2601 0.899041C15.2601 0.899041 14.7839 2.12092 14.1488 3.15964C12.81 5.35156 12.2737 5.46724 12.0549 5.33107C11.5461 5.01416 11.6736 4.05617 11.6736 3.37655C11.6736 1.25211 12.0074 0.366426 11.0223 0.137473C10.6948 0.0615577 10.4548 0.0109472 9.61848 0.0025121C8.54591 -0.008333 7.63709 0.00612713 7.1233 0.248334C6.78078 0.409806 6.51701 0.770105 6.67827 0.79059C6.87703 0.815895 7.32707 0.907476 7.56583 1.22078C7.87461 1.62446 7.86336 2.53304 7.86336 2.53304C7.86336 2.53304 8.04087 5.03344 7.44958 5.34433C7.0433 5.55762 6.487 5.12261 5.29317 3.13313C4.68187 2.1149 4.21934 0.988212 4.21934 0.988212C4.21934 0.988212 4.13058 0.77854 3.97182 0.666474C3.77931 0.530307 3.50929 0.486927 3.50929 0.486927L0.651577 0.503797C0.651577 0.503797 0.222795 0.515847 0.0652839 0.695394C-0.0747264 0.855661 0.054033 1.18583 0.054033 1.18583C0.054033 1.18583 2.2917 6.23122 4.82438 8.775C7.1483 11.1067 9.786 10.9537 9.786 10.9537H10.9811C10.9811 10.9537 11.3424 10.9151 11.5261 10.7235C11.6961 10.5476 11.6899 10.2174 11.6899 10.2174C11.6899 10.2174 11.6661 8.67137 12.4112 8.44362C13.145 8.21949 14.0876 9.93783 15.0864 10.5994C15.8414 11.0995 16.4152 10.9898 16.4152 10.9898L19.0867 10.9537C19.0867 10.9537 20.4843 10.8705 19.8217 9.81131Z" fill="black"/>
</svg>
